# xmcd
# 
# Track frame offsets:
#     150
#     10592
#     21783
#     38318
#     53935
#     63118
#     82288
#     95885
#     114289
#     127160
#     138754
#     148544
#     166162
#     181679
#     192171
#     211795
# 
# Disc length: 3021
# 
# Revision: 1
# Processed by: cddbd v1.5.2PL0 Copyright (c) Steve Scherf et al.
# Submitted via: BonkEnc v1.0.8
# 
DISCID=cc0bcb10
DTITLE=Country No.1 (5) - Cesty toulavý
DYEAR=2007
DGENRE=Country
TTITLE0=Diggy Liggy
TTITLE1=Cesty toulavý
TTITLE2=Prokletá rokle
TTITLE3=Divoké koně
TTITLE4=Ruty šuty
TTITLE5=Všichni jsou už v Mexiku
TTITLE6=Čaroděj
TTITLE7=Představy
TTITLE8=V uličkách města Bakersfield
TTITLE9=Sobota
TTITLE10=Vejplata
TTITLE11=Sen o Skotsku
TTITLE12=Červená řeka
TTITLE13=Tak já jdu dál
TTITLE14=Něco o mámě (Rock`n` roll Lullaby)
TTITLE15=Lásko, mě ubývá sil
EXTD=
EXTT0=
EXTT1=
EXTT2=
EXTT3=
EXTT4=
EXTT5=
EXTT6=
EXTT7=
EXTT8=
EXTT9=
EXTT10=
EXTT11=
EXTT12=
EXTT13=
EXTT14=
EXTT15=
PLAYORDER=
